<svg width="50" height="50" viewBox="0 0 50 50" fill="none" xmlns="http://www.w3.org/2000/svg">
<circle cx="25" cy="25" r="24.5" stroke="white"/>
<path d="M34.6874 17.9194C33.4293 17.6427 32.2911 16.9746 31.4363 16.0109C30.5814 15.0472 30.0538 13.8375 29.9292 12.5553V12H25.5749V29.2532C25.5757 30.0188 25.3357 30.7652 24.8888 31.3868C24.4419 32.0084 23.8108 32.4736 23.0848 32.7165C22.3588 32.9594 21.5747 32.9678 20.8437 32.7403C20.1128 32.5129 19.4718 32.0613 19.0118 31.4493C18.5997 30.9077 18.3473 30.2615 18.2832 29.5839C18.2192 28.9063 18.346 28.2243 18.6493 27.615C18.9526 27.0057 19.4204 26.4934 19.9997 26.1361C20.579 25.7788 21.2467 25.5907 21.9273 25.5931C22.3037 25.5909 22.6783 25.6463 23.038 25.7572V21.3397C22.6194 21.2879 22.1975 21.2668 21.7759 21.2766C20.2226 21.3181 18.7151 21.8117 17.438 22.6968C16.161 23.582 15.1698 24.8204 14.5858 26.2603C14.0018 27.7002 13.8503 29.2792 14.15 30.8038C14.4497 32.3285 15.1875 33.7327 16.273 34.8445C17.3855 35.9756 18.8092 36.7504 20.3632 37.0706C21.9171 37.3907 23.5311 37.2417 25.0002 36.6425C26.4692 36.0432 27.7269 35.0208 28.6136 33.7051C29.5002 32.3894 29.9757 30.8398 29.9797 29.2532V20.4184C31.7359 21.6729 33.8418 22.3439 36 22.3368V18.0456C35.5761 18.0473 35.1531 18.005 34.7379 17.9194H34.6874Z" fill="white"/>
</svg>
