<svg width="50" height="50" viewBox="0 0 50 50" fill="none" xmlns="http://www.w3.org/2000/svg">
<circle cx="25" cy="25" r="24.5" stroke="white"/>
<path d="M35.6498 18.193C35.5434 17.7758 35.241 17.4608 34.8952 17.3642C34.282 17.192 31.3014 16.8 25.0014 16.8C18.7014 16.8 15.7222 17.192 15.1048 17.3642C14.7632 17.4594 14.4608 17.7744 14.353 18.193C14.2004 18.7866 13.8014 21.273 13.8014 25.2C13.8014 29.1256 14.2004 31.612 14.353 32.2084C14.4594 32.6242 14.7618 32.9392 15.1062 33.0344C15.7222 33.208 18.7 33.6 25 33.6C31.3 33.6 34.2806 33.208 34.8966 33.0358C35.2382 32.9406 35.5406 32.6256 35.6484 32.207C35.8024 31.6134 36.2 29.12 36.2 25.2C36.2 21.28 35.8024 18.788 35.6498 18.193ZM38.3602 17.4972C39 19.992 39 25.2 39 25.2C39 25.2 39 30.408 38.3602 32.9028C38.0046 34.2818 36.9644 35.3668 35.647 35.7336C33.2558 36.4 25 36.4 25 36.4C25 36.4 16.7498 36.4 14.353 35.7336C13.03 35.3612 11.9912 34.2776 11.6398 32.9028C11 30.408 11 25.2 11 25.2C11 25.2 11 19.992 11.6398 17.4972C11.9954 16.1182 13.0356 15.0332 14.353 14.6664C16.7512 14 25.0014 14 25.0014 14C25.0014 14 33.2558 14 35.6484 14.6664C36.97 15.0388 38.0102 16.1224 38.3616 17.4972M22.2014 30.1V20.3L30.6014 25.2L22.2014 30.1Z" fill="white"/>
</svg>
