<svg width="50" height="50" viewBox="0 0 50 50" fill="none" xmlns="http://www.w3.org/2000/svg">
<circle cx="25" cy="25" r="24.5" stroke="white"/>
<path d="M25.0013 21.1C23.967 21.1 22.975 21.5109 22.2436 22.2423C21.5122 22.9737 21.1013 23.9657 21.1013 25C21.1013 26.0343 21.5122 27.0263 22.2436 27.7577C22.975 28.4891 23.967 28.9 25.0013 28.9C26.0356 28.9 27.0276 28.4891 27.759 27.7577C28.4904 27.0263 28.9013 26.0343 28.9013 25C28.9013 23.9657 28.4904 22.9737 27.759 22.2423C27.0276 21.5109 26.0356 21.1 25.0013 21.1ZM25.0013 18.5C26.7252 18.5 28.3785 19.1848 29.5975 20.4038C30.8165 21.6228 31.5013 23.2761 31.5013 25C31.5013 26.7239 30.8165 28.3772 29.5975 29.5962C28.3785 30.8152 26.7252 31.5 25.0013 31.5C23.2774 31.5 21.6241 30.8152 20.4051 29.5962C19.1861 28.3772 18.5013 26.7239 18.5013 25C18.5013 23.2761 19.1861 21.6228 20.4051 20.4038C21.6241 19.1848 23.2774 18.5 25.0013 18.5ZM33.4513 18.175C33.4513 18.606 33.2801 19.0193 32.9753 19.324C32.6706 19.6288 32.2573 19.8 31.8263 19.8C31.3953 19.8 30.982 19.6288 30.6773 19.324C30.3725 19.0193 30.2013 18.606 30.2013 18.175C30.2013 17.744 30.3725 17.3307 30.6773 17.026C30.982 16.7212 31.3953 16.55 31.8263 16.55C32.2573 16.55 32.6706 16.7212 32.9753 17.026C33.2801 17.3307 33.4513 17.744 33.4513 18.175ZM25.0013 14.6C21.7851 14.6 21.2599 14.6091 19.7636 14.6754C18.7444 14.7235 18.0606 14.86 17.4262 15.107C16.8953 15.3019 16.4153 15.6143 16.0222 16.0209C15.6153 16.414 15.3025 16.894 15.107 17.4249C14.86 18.0619 14.7235 18.7444 14.6767 19.7623C14.6091 21.1975 14.6 21.6993 14.6 25C14.6 28.2175 14.6091 28.7414 14.6754 30.2377C14.7235 31.2556 14.86 31.9407 15.1057 32.5738C15.3267 33.1393 15.5867 33.5462 16.0183 33.9778C16.4564 34.4146 16.8633 34.6759 17.4223 34.8917C18.0645 35.14 18.7483 35.2778 19.7623 35.3246C21.1975 35.3922 21.6993 35.4 25 35.4C28.2175 35.4 28.7414 35.3909 30.2377 35.3246C31.2543 35.2765 31.9381 35.14 32.5738 34.8943C33.1042 34.6984 33.584 34.3861 33.9778 33.9804C34.4159 33.5436 34.6772 33.1367 34.893 32.5764C35.14 31.9368 35.2778 31.253 35.3246 30.2364C35.3922 28.8025 35.4 28.2994 35.4 25C35.4 21.7838 35.3909 21.2586 35.3246 19.7623C35.2765 18.7457 35.1387 18.0593 34.893 17.4249C34.697 16.8945 34.3848 16.4148 33.9791 16.0209C33.5862 15.6138 33.1062 15.3009 32.5751 15.1057C31.9381 14.8587 31.2543 14.7222 30.2377 14.6754C28.8038 14.6078 28.302 14.6 25 14.6M25 12C28.5321 12 28.9728 12.013 30.3599 12.078C31.7431 12.143 32.6869 12.3601 33.515 12.6825C34.373 13.0127 35.0958 13.4599 35.8186 14.1814C36.4796 14.8313 36.9911 15.6174 37.3175 16.485C37.6386 17.3131 37.857 18.2569 37.922 19.6414C37.9831 21.0272 38 21.4679 38 25C38 28.5321 37.987 28.9728 37.922 30.3586C37.857 31.7431 37.6386 32.6856 37.3175 33.515C36.992 34.3831 36.4804 35.1694 35.8186 35.8186C35.1686 36.4794 34.3825 36.9909 33.515 37.3175C32.6869 37.6386 31.7431 37.857 30.3599 37.922C28.9728 37.9831 28.5321 38 25 38C21.4679 38 21.0272 37.987 19.6401 37.922C18.2569 37.857 17.3144 37.6386 16.485 37.3175C15.617 36.9918 14.8308 36.4802 14.1814 35.8186C13.5203 35.1688 13.0087 34.3827 12.6825 33.515C12.3601 32.6869 12.143 31.7431 12.078 30.3586C12.0156 28.9728 12 28.5321 12 25C12 21.4679 12.013 21.0272 12.078 19.6414C12.143 18.2569 12.3601 17.3144 12.6825 16.485C13.0078 15.6168 13.5194 14.8305 14.1814 14.1814C14.831 13.52 15.6172 13.0084 16.485 12.6825C17.3131 12.3601 18.2556 12.143 19.6401 12.078C21.0285 12.0169 21.4692 12 25.0013 12" fill="white"/>
</svg>
